<svg width="55" height="55" viewBox="0 0 46 47" fill="none" xmlns="http://www.w3.org/2000/svg">
<path d="M31.4573 18.4852C32.2244 17.7703 32.2667 16.5688 31.5517 15.8017C30.8367 15.0346 29.6353 14.9924 28.8682 15.7073L23.3123 20.8855L18.1341 15.3297C17.4192 14.5626 16.2177 14.5203 15.4506 15.2352C14.6835 15.9502 14.6413 17.1517 15.3562 17.9188L20.5344 23.4746L14.9786 28.6528C14.2115 29.3678 14.1692 30.5692 14.8841 31.3363C15.5991 32.1034 16.8006 32.1457 17.5677 31.4307L23.1235 26.2525L28.3017 31.8084C29.0167 32.5755 30.2181 32.6178 30.9852 31.9028C31.7523 31.1878 31.7946 29.9864 31.0796 29.2193L25.9014 23.6634L31.4573 18.4852Z" fill="#58595B"/>
<path fill-rule="evenodd" clip-rule="evenodd" d="M2.33228 23.5691C2.33228 12.0342 11.6831 2.68337 23.218 2.68337C34.7529 2.68337 44.1038 12.0342 44.1038 23.5691C44.1038 35.104 34.7529 44.4549 23.218 44.4549C11.6831 44.4549 2.33228 35.104 2.33228 23.5691ZM23.218 40.6575C13.7804 40.6575 6.12968 33.0068 6.12968 23.5691C6.12968 14.1315 13.7804 6.48078 23.218 6.48078C32.6557 6.48078 40.3064 14.1315 40.3064 23.5691C40.3064 33.0068 32.6557 40.6575 23.218 40.6575Z" fill="#58595B"/>
</svg>
